HIERARCHY
ROOT SpineBase
{
  OFFSET 0.000000 0.000000 0.000000
  CHANNELS 6 Xposition Yposition Zposition Zrotation Xrotation Yrotation
  JOINT SpineMid
  {
    OFFSET 0.000000 34.379816 0.000000
    CHANNELS 3 Zrotation Xrotation Yrotation
    JOINT SpineShoulder
    {
      OFFSET -0.194005 25.978882 -0.642484
      CHANNELS 3 Zrotation Xrotation Yrotation
      JOINT Neck
      {
        OFFSET -0.196765 8.669677 -0.500046
        CHANNELS 3 Zrotation Xrotation Yrotation
        JOINT Head
        {
          OFFSET -0.441197 13.050178 1.885868
          CHANNELS 3 Zrotation Xrotation Yrotation
          End Site
          {
            OFFSET 0 0 0
          }
        }
      }
      JOINT ShoulderLeft
      {
        OFFSET -11.200428 -6.101928 -9.799930
        CHANNELS 3 Zrotation Xrotation Yrotation
        JOINT ElbowLeft
        {
          OFFSET -6.758625 -26.924075 0.247480
          CHANNELS 3 Zrotation Xrotation Yrotation
          JOINT WristLeft
          {
            OFFSET -5.819188 -24.143170 2.236949
            CHANNELS 3 Zrotation Xrotation Yrotation
            JOINT HandLeft
            {
              OFFSET 0.402343 -6.156430 -0.196487
              CHANNELS 3 Zrotation Xrotation Yrotation
              JOINT HandTipLeft
              {
                OFFSET 0.005888 -6.840659 -1.426418
                CHANNELS 3 Zrotation Xrotation Yrotation
                End Site
                {
                  OFFSET 0 0 0
                }
              }
              JOINT ThumbLeft
              {
                OFFSET -2.960343 -1.654155 -3.796076
                CHANNELS 3 Zrotation Xrotation Yrotation
                End Site
                {
                  OFFSET 0 0 0
                }
              }
            }
          }
        }
      }
      JOINT ShoulderRight
      {
        OFFSET 12.774220 -3.438998 -2.494746
        CHANNELS 3 Zrotation Xrotation Yrotation
        JOINT ElbowRight
        {
          OFFSET 12.124989 -26.307768 7.104095
          CHANNELS 3 Zrotation Xrotation Yrotation
          JOINT WristRight
          {
            OFFSET -32.452046 -12.190721 -8.785968
            CHANNELS 3 Zrotation Xrotation Yrotation
            JOINT HandRight
            {
              OFFSET -2.216888 -6.832580 -4.130429
              CHANNELS 3 Zrotation Xrotation Yrotation
              JOINT HandTipRight
              {
                OFFSET -6.845252 -9.661299 4.195338
                CHANNELS 3 Zrotation Xrotation Yrotation
                End Site
                {
                  OFFSET 0 0 0
                }
              }
              JOINT ThumbRight
              {
                OFFSET 6.193232 -5.180668 -6.195318
                CHANNELS 3 Zrotation Xrotation Yrotation
                End Site
                {
                  OFFSET 0 0 0
                }
              }
            }
          }
        }
      }
    }
  }
  JOINT HipLeft
  {
    OFFSET -8.333654 2.922372 -5.632299
    CHANNELS 3 Zrotation Xrotation Yrotation
    JOINT KneeLeft
    {
      OFFSET 4.064503 -35.910585 -1.034290
      CHANNELS 3 Zrotation Xrotation Yrotation
      JOINT AnkleLeft
      {
        OFFSET 0.515690 -36.919954 -1.051060
        CHANNELS 3 Zrotation Xrotation Yrotation
        JOINT FootLeft
        {
          OFFSET 1.694226 -2.477956 -14.137754
          CHANNELS 3 Zrotation Xrotation Yrotation
          End Site
          {
            OFFSET 0 0 0
          }
        }
      }
    }
  }
  JOINT HipRight
  {
    OFFSET 6.241303 0.593957 -0.080163
    CHANNELS 3 Zrotation Xrotation Yrotation
    JOINT KneeRight
    {
      OFFSET 8.952684 -40.654147 5.666153
      CHANNELS 3 Zrotation Xrotation Yrotation
      JOINT AnkleRight
      {
        OFFSET 3.285743 -32.901172 3.130539
        CHANNELS 3 Zrotation Xrotation Yrotation
        JOINT FootRight
        {
          OFFSET -12.799665 1.533210 -9.615739
          CHANNELS 3 Zrotation Xrotation Yrotation
          End Site
          {
            OFFSET 0 0 0
          }
        }
      }
    }
  }
}
MOTION
Frames: 5
Frame Time: 0.033333
91.384370 76.620936 254.489000 -0.000000 0.000000 -20.853676 -0.000000 0.000000 20.853676 -0.000000 0.000000 0.000000 -0.000000 0.000000 0.000000 0.000000 0.000000 0.000000 -0.000000 0.000000 0.000000 -0.000000 0.000000 0.000000 -0.000000 0.000000 0.000000 -0.000000 0.000000 0.000000 0.000000 0.000000 0.000000 0.000000 0.000000 0.000000 -0.000000 0.000000 0.000000 -0.000000 0.000000 0.000000 -0.000000 0.000000 0.000000 -0.000000 0.000000 0.000000 0.000000 0.000000 0.000000 0.000000 0.000000 0.000000 -0.000000 0.000000 20.853676 -0.000000 0.000000 0.000000 -0.000000 0.000000 0.000000 0.000000 0.000000 0.000000 -0.000000 0.000000 20.853676 -0.000000 0.000000 0.000000 -0.000000 0.000000 0.000000 0.000000 0.000000 0.000000
91.561434 76.570513 254.420064 0.236944 0.126917 -21.219696 -0.174944 -0.204072 21.219122 -0.000000 0.000000 0.000000 -0.000000 0.000000 0.000000 0.000000 0.000000 0.000000 -0.000000 0.000000 0.000000 0.585645 0.827123 -0.149612 0.713440 -3.116354 -0.005107 -3.028140 6.691268 0.708664 0.000000 0.000000 0.000000 0.000000 0.000000 0.000000 -15.146403 5.387042 -0.985567 22.964627 -6.777633 3.677546 -9.903365 -9.988947 5.174226 7.780529 19.768212 -11.946569 0.000000 0.000000 0.000000 0.000000 0.000000 0.000000 -0.174944 -0.204072 21.219122 -0.000000 0.000000 0.000000 -0.206911 -6.731920 -5.182958 0.000000 0.000000 0.000000 -0.174944 -0.204072 21.219122 -1.123392 0.425202 -0.060342 1.123870 -0.423937 0.068668 0.000000 0.000000 0.000000
91.700268 76.532771 254.362537 0.423945 0.227978 -21.523520 -0.310748 -0.367614 21.521680 -0.000000 0.000000 0.000000 -0.000000 0.000000 0.000000 0.000000 0.000000 0.000000 0.338942 1.005134 -0.252386 0.611069 0.235610 0.041902 1.986873 -6.748857 -0.048406 -6.104762 12.939860 1.727306 0.000000 0.000000 0.000000 0.000000 0.000000 0.000000 -29.573467 10.516312 -0.613769 45.720742 -11.262020 9.640876 -18.441967 -16.067356 8.850384 18.520007 33.602999 -25.436885 0.000000 0.000000 0.000000 0.000000 0.000000 0.000000 -0.310748 -0.367614 21.521680 -0.000000 0.000000 0.000000 -1.239032 -14.504841 -11.437609 0.000000 0.000000 0.000000 -0.310748 -0.367614 21.521680 -2.024028 0.764600 -0.102987 2.629503 -1.304297 -0.578934 0.000000 0.000000 0.000000
91.800873 76.507709 254.316418 0.561360 0.303374 -21.766015 -0.408858 -0.489895 21.762781 -0.000000 0.000000 0.000000 -0.783973 -0.422699 0.096184 0.000000 0.000000 0.000000 0.466318 1.379075 -0.347918 0.664166 -0.084290 0.144004 3.659767 -10.862917 -0.076035 -9.111554 18.559545 3.019335 0.000000 0.000000 0.000000 0.000000 0.000000 0.000000 -40.917077 14.271759 0.528620 64.540767 -12.837988 15.591776 -25.460065 -19.381009 11.499774 30.458000 41.661584 -39.153470 0.000000 0.000000 0.000000 0.000000 0.000000 0.000000 -0.859731 -1.340743 21.706152 0.733603 0.623716 0.045433 -3.370374 -22.542901 -18.587104 0.000000 0.000000 0.000000 -0.408858 -0.489895 21.762781 -2.689232 1.012667 -0.131440 3.462996 -1.706738 -0.767967 0.000000 0.000000 0.000000
91.863249 76.495328 254.281708 0.649453 0.353246 -21.947871 -0.470378 -0.570367 21.943527 -0.000000 0.000000 0.000000 -0.924762 -0.532601 0.111440 0.000000 0.000000 0.000000 0.564047 1.664592 -0.421469 0.582081 -0.647703 0.289382 5.413250 -14.982907 -0.077935 -11.697459 23.052179 4.395188 0.000000 0.000000 0.000000 0.000000 0.000000 0.000000 -48.418953 16.505347 1.618845 77.503610 -12.695038 19.924785 -30.665329 -20.971823 13.291258 40.576175 45.259483 -50.228369 0.000000 0.000000 0.000000 0.000000 0.000000 0.000000 -0.981065 -1.601279 21.871877 0.858010 0.766383 0.056234 -6.508417 -29.718176 -26.065333 0.000000 0.000000 0.000000 -0.470378 -0.570367 21.943527 -3.109966 1.165530 -0.148488 3.962133 -1.937389 -0.899149 0.000000 0.000000 0.000000
